<svg width="32" height="32" viewBox="0 0 32 32" fill="none" xmlns="http://www.w3.org/2000/svg">
<path d="M16.0003 23.9998C14.2236 24.8297 11.8898 25.3332 9.33366 25.3332C7.91243 25.3332 6.55991 25.1775 5.33366 24.8966C4.54539 24.7161 4.15125 24.6258 3.67897 24.2521C3.40961 24.039 3.07343 23.6171 2.92581 23.307C2.66699 22.7632 2.66699 22.2358 2.66699 21.1812V6.81846C2.66699 5.50536 4.0537 4.60347 5.33366 4.89664C6.55991 5.17751 7.91243 5.33317 9.33366 5.33317C11.8898 5.33317 14.2236 4.82966 16.0003 3.99984C17.777 3.17002 20.1109 2.6665 22.667 2.6665C24.0882 2.6665 25.4407 2.82217 26.667 3.10303C27.4553 3.28358 27.8494 3.37386 28.3217 3.74755C28.591 3.96069 28.9272 4.38257 29.0748 4.69272C29.3337 5.23651 29.3337 5.76383 29.3337 6.81846V21.1812C29.3337 22.4943 27.9469 23.3962 26.667 23.103C25.4407 22.8222 24.0882 22.6665 22.667 22.6665C20.1109 22.6665 17.777 23.17 16.0003 23.9998Z" stroke="#44785C" stroke-width="1.5"/>
<path d="M2.66699 28.0002C4.44371 28.83 6.77756 29.3335 9.33366 29.3335C11.8898 29.3335 14.2236 28.83 16.0003 28.0002C17.777 27.1703 20.1109 26.6668 22.667 26.6668C25.2231 26.6668 27.5569 27.1703 29.3337 28.0002" stroke="#44785C" stroke-width="1.5" stroke-linecap="round"/>
<path d="M19.3337 13.9998C19.3337 15.8408 17.8413 17.3332 16.0003 17.3332C14.1594 17.3332 12.667 15.8408 12.667 13.9998C12.667 12.1589 14.1594 10.6665 16.0003 10.6665C17.8413 10.6665 19.3337 12.1589 19.3337 13.9998Z" stroke="#44785C" stroke-width="1.5"/>
<path d="M7.33301 15.3335L7.33301 15.3455" stroke="#44785C" stroke-width="2" stroke-linecap="round" stroke-linejoin="round"/>
<path d="M24.667 12.6562L24.667 12.6682" stroke="#44785C" stroke-width="2" stroke-linecap="round" stroke-linejoin="round"/>
</svg>
