<svg width="32" height="32" viewBox="0 0 32 32" fill="none" xmlns="http://www.w3.org/2000/svg">
<path d="M11.0246 11.3288C12.8124 10.2322 14.3728 10.6741 15.3101 11.378C15.6944 11.6667 15.8866 11.811 15.9997 11.811C16.1127 11.811 16.3049 11.6667 16.6892 11.378C17.6266 10.6741 19.187 10.2322 20.9747 11.3288C23.321 12.768 23.8519 17.5159 18.44 21.5216C17.4092 22.2845 16.8938 22.666 15.9997 22.666C15.1055 22.666 14.5902 22.2845 13.5594 21.5216C8.14749 17.5159 8.67839 12.768 11.0246 11.3288Z" stroke="#141B34" stroke-width="1.5" stroke-linecap="round"/>
<path d="M29.3337 15.9997C29.3337 8.63588 23.3641 2.66634 16.0003 2.66634C8.63653 2.66634 2.66699 8.63588 2.66699 15.9997C2.66699 23.3635 8.63653 29.333 16.0003 29.333C23.3641 29.333 29.3337 23.3635 29.3337 15.9997Z" stroke="#141B34" stroke-width="1.5"/>
</svg>
