<svg width="217" height="40" viewBox="0 0 217 40" fill="none" xmlns="http://www.w3.org/2000/svg">
<path fill-rule="evenodd" clip-rule="evenodd" d="M19.0788 24.3702C19.6634 24.7062 20.3962 24.6038 20.8711 24.1204C24.1801 20.7494 37.0187 7.67063 37.0187 7.67063L38.0321 8.70295C38.0321 8.70295 40.9923 11.7186 43.9223 14.7074C46.8364 17.6761 47.7781 22.1074 46.3293 26.0388C44.8807 29.9703 41.3095 32.6761 37.1965 32.9582H37.196C35.5922 33.0667 33.7855 32.9701 31.7511 32.596C25.7748 31.497 21.6052 28.9397 17.7873 26.9771C15.2289 25.6618 12.8544 24.6154 10.0861 24.7097C7.28924 24.8049 4.12993 26.0668 0 29.1828C0 29.1828 8.52487 18.3077 19.0788 24.3702ZM22.7721 26.3137L37.0187 11.8005C38.1349 12.9378 40.0206 14.8597 41.8942 16.7712H41.8944C44.014 18.9311 44.699 22.1535 43.6454 25.0126C42.5921 27.8716 39.9951 29.839 37.0045 30.0444C35.6072 30.1387 34.0332 30.0482 32.2602 29.7219C28.4599 29.023 25.4399 27.6815 22.7718 26.3134L22.7721 26.3137ZM33.7863 21.8634H36.6469V24.7775H33.7863V21.8634ZM37.4213 21.8634H40.2819V24.7775H37.4213V21.8634ZM37.4213 18.0877H40.2819V21.0018H37.4213V18.0877ZM33.7863 18.0877H36.6469V21.0018H33.7863V18.0877ZM18.066 10.444L16.4747 10.6912L8.43569 19.8688H19.8214C22.1262 19.8688 24.3364 18.936 25.9662 17.276C29.4565 13.7204 35.3006 7.76696 35.3006 7.76696C35.3006 7.76696 27.1268 9.03668 23.186 9.64875C22.6659 9.72951 22.1373 9.5752 21.7383 9.2259C21.3394 8.8766 21.1097 8.3675 21.1097 7.83157V7H18.0657V10.444H18.066Z" fill="#44785C"/>
<path d="M78.1455 26.4805C76.2021 28.502 73.7217 29.5127 70.7041 29.5127C67.8623 29.5127 65.5283 28.6484 63.7021 26.9199C62.7939 26.0508 62.0811 24.9131 61.5635 23.5068C61.0557 22.0908 60.8018 20.377 60.8018 18.3652C60.8018 16.3438 61.2754 14.4785 62.2227 12.7695C63.1699 11.0605 64.498 9.7373 66.207 8.7998C67.9258 7.8623 69.835 7.39355 71.9346 7.39355C74.0439 7.39355 75.9531 7.79395 77.6621 8.59473C77.8379 8.80957 77.9258 9.08301 77.9258 9.41504C77.9258 9.7373 77.9258 9.94727 77.9258 10.0449L77.7207 13.2822C77.1836 13.6436 76.6611 13.8242 76.1533 13.8242C75.6553 13.8242 75.2598 13.751 74.9668 13.6045C74.6738 13.4482 74.459 13.2334 74.3223 12.96C74.0879 12.4912 73.9707 12.0225 73.9707 11.5537C73.9707 11.0752 73.9805 10.6504 74 10.2793C73.4531 9.87891 72.7256 9.67871 71.8174 9.67871C70.9189 9.67871 70.1914 9.77148 69.6348 9.95703C69.0879 10.1328 68.5703 10.4258 68.082 10.8359C67.5938 11.2461 67.1787 11.7588 66.8369 12.374C66.0947 13.7119 65.7236 15.5332 65.7236 17.8379C65.7236 20.748 66.3584 22.9844 67.6279 24.5469C68.9072 26.0996 70.5625 26.876 72.5938 26.876C74.0684 26.876 75.5283 26.2559 76.9736 25.0156C77.54 25.2891 77.9307 25.7773 78.1455 26.4805Z" fill="#44785C"/>
<path d="M98.6621 21.0312C98.6621 22.3105 98.4326 23.5117 97.9736 24.6348C97.5146 25.7578 96.8652 26.6758 96.0254 27.3887C94.3359 28.8242 92.1045 29.542 89.3311 29.542C87.9443 29.542 86.665 29.2148 85.4932 28.5605C84.3213 27.9062 83.3887 26.9932 82.6953 25.8213C82.002 24.6396 81.6553 23.2334 81.6553 21.6025C81.6553 19.9619 82.0752 18.4873 82.915 17.1787C84.5654 14.6006 87.334 13.3115 91.2207 13.3115C93.1738 13.3115 94.8877 13.9805 96.3623 15.3184C97.8955 16.7148 98.6621 18.6191 98.6621 21.0312ZM85.9766 21.4561C85.9766 23.126 86.46 24.5859 87.4268 25.8359C88.3936 27.0859 89.5264 27.7109 90.8252 27.7109C93.2275 27.7109 94.4287 25.7529 94.4287 21.8369C94.4287 19.8936 93.9844 18.3164 93.0957 17.1055C92.207 15.8945 91.0742 15.2891 89.6973 15.2891C89.0039 15.2891 88.4033 15.4648 87.8955 15.8164C87.3877 16.168 87.002 16.6416 86.7383 17.2373C86.2305 18.3799 85.9766 19.7861 85.9766 21.4561Z" fill="#44785C"/>
<path d="M110.767 19.4346H101.86C101.733 19.2783 101.67 18.8584 101.67 18.1748C101.67 17.4912 101.743 17.0518 101.89 16.8564C103.12 16.6807 104.707 16.5928 106.65 16.5928C108.594 16.5928 110.005 16.6465 110.884 16.7539C110.962 17.0469 111.001 17.4717 111.001 18.0283C111.001 18.5752 110.923 19.0439 110.767 19.4346Z" fill="#44785C"/>
<path d="M115.637 24.3418C115.861 24.3027 116.184 24.2832 116.604 24.2832C117.033 24.2832 117.6 24.4541 118.303 24.7959C118.293 24.874 118.288 25.0205 118.288 25.2354C118.288 25.4502 118.337 25.7139 118.435 26.0264C118.542 26.3389 118.703 26.627 118.918 26.8906C119.387 27.4766 120.158 27.7695 121.232 27.7695C122.307 27.7695 123.01 27.4082 123.342 26.6855C123.625 26.0215 123.576 25.333 123.195 24.6201C122.912 24.0928 122.155 23.5898 120.925 23.1113C120.72 23.0332 120.437 22.9258 120.075 22.7891C116.833 21.627 115.192 19.9473 115.153 17.75C115.153 16.7539 115.432 15.9141 115.988 15.2305C117.043 13.9512 118.825 13.3115 121.335 13.3115C122.985 13.3115 124.377 13.6533 125.51 14.3369C126.652 15.0205 127.224 15.8604 127.224 16.8564C127.224 17.9697 126.682 18.5264 125.598 18.5264C124.826 18.5264 124.284 18.4434 123.972 18.2773C123.659 18.1016 123.503 18.0039 123.503 17.9844C123.503 17.9258 123.503 17.8721 123.503 17.8232C123.503 15.9971 122.614 15.084 120.837 15.084C120.222 15.084 119.733 15.2451 119.372 15.5674C119.021 15.8799 118.845 16.3438 118.845 16.959C118.845 17.5645 119.06 18.0674 119.489 18.4678C119.929 18.8682 120.769 19.3174 122.009 19.8154C123.259 20.3135 124.06 20.6504 124.411 20.8262C126.608 21.8906 127.707 23.2676 127.707 24.957C127.707 26.4219 127.087 27.5498 125.847 28.3408C124.616 29.1221 122.976 29.5127 120.925 29.5127C119.567 29.5127 118.542 29.3955 117.849 29.1611C117.155 28.9268 116.628 28.7119 116.267 28.5166C115.915 28.3213 115.622 28.1162 115.388 27.9014C115.163 27.6865 114.973 27.4619 114.816 27.2275C114.396 26.6123 114.274 25.9873 114.45 25.3525C114.597 24.8154 114.992 24.4785 115.637 24.3418Z" fill="#44785C"/>
<path d="M130.091 38.5068C130.286 36.5635 130.384 33.1992 130.384 28.4141C130.384 23.6191 130.247 19.9033 129.974 17.2666C129.915 16.2607 129.363 15.7139 128.318 15.626C128.309 15.5674 128.294 15.499 128.274 15.4209C128.265 15.333 128.255 15.2646 128.245 15.2158C128.226 15.0791 128.216 14.9619 128.216 14.8643C128.216 14.7666 128.221 14.6787 128.23 14.6006C129.529 14.1025 130.589 13.7998 131.409 13.6924C132.229 13.5752 132.825 13.5166 133.196 13.5166C133.577 13.5166 133.812 13.5166 133.899 13.5166C134.124 13.8584 134.275 14.4883 134.354 15.4062C135.027 14.791 135.813 14.3027 136.712 13.9414C137.62 13.5801 138.465 13.3994 139.246 13.3994C140.037 13.3994 140.721 13.4629 141.297 13.5898C141.873 13.707 142.439 13.9316 142.996 14.2637C143.562 14.5859 144.051 15.0059 144.461 15.5234C145.467 16.793 145.97 18.6045 145.97 20.958C145.97 22.0811 145.794 23.126 145.442 24.0928C145.091 25.0596 144.627 25.875 144.051 26.5391C143.484 27.2031 142.835 27.7695 142.103 28.2383C140.687 29.1465 139.275 29.6006 137.869 29.6006C136.463 29.6006 135.33 29.459 134.471 29.1758C134.471 31.0215 134.451 34.1611 134.412 38.5947C133.523 38.751 132.723 38.8291 132.01 38.8291C131.307 38.8291 130.667 38.7217 130.091 38.5068ZM134.412 16.9736C134.451 19.415 134.471 22.8525 134.471 27.2861C135.076 27.5107 135.765 27.623 136.536 27.623C137.317 27.623 137.972 27.501 138.499 27.2568C139.026 27.0029 139.52 26.6318 139.979 26.1436C140.984 25.0596 141.487 23.4238 141.487 21.2363C141.487 18.9805 141.023 17.457 140.096 16.666C139.402 16.0703 138.543 15.7725 137.518 15.7725C136.502 15.7725 135.467 16.1729 134.412 16.9736Z" fill="#44785C"/>
<path d="M161.835 20.7236L161.747 25.6455C161.747 25.6943 161.747 25.7432 161.747 25.792C161.747 26.3291 162.001 26.5977 162.509 26.5977C162.899 26.5977 163.314 26.4707 163.754 26.2168C163.891 26.334 164.018 26.5 164.135 26.7148C164.262 26.9199 164.335 27.0811 164.354 27.1982C163.144 28.7412 161.884 29.5127 160.575 29.5127C159.276 29.5127 158.368 28.873 157.851 27.5938C156.952 28.2188 156.034 28.6924 155.097 29.0146C154.169 29.3467 153.368 29.5127 152.694 29.5127C152.03 29.5127 151.41 29.4395 150.834 29.293C150.268 29.1465 149.74 28.9121 149.252 28.5898C148.197 27.9062 147.67 26.7783 147.67 25.2061C147.67 24.3662 147.899 23.6338 148.358 23.0088C148.827 22.374 149.462 21.876 150.263 21.5146C151.796 20.8213 153.627 20.4453 155.756 20.3867L157.455 20.3281C157.523 19.5371 157.558 18.9121 157.558 18.4531C157.558 17.418 157.357 16.6367 156.957 16.1094C156.566 15.582 155.834 15.3184 154.76 15.3184C154.115 15.3184 153.612 15.543 153.251 15.9922C152.899 16.4414 152.724 17.1055 152.724 17.9844C152.724 18.1016 152.558 18.2432 152.226 18.4092C151.669 18.6729 151.112 18.8047 150.556 18.8047C150.009 18.8047 149.569 18.6484 149.237 18.3359C148.915 18.0234 148.754 17.584 148.754 17.0176C148.754 16.4512 148.959 15.9189 149.369 15.4209C149.779 14.9229 150.326 14.5371 151.01 14.2637C152.367 13.7266 153.915 13.458 155.653 13.458C157.47 13.458 158.798 13.7461 159.638 14.3223C160.399 14.8301 160.941 15.5576 161.264 16.5049C161.645 17.6084 161.835 19.0146 161.835 20.7236ZM157.455 26.0557C157.328 25.3428 157.265 24.7275 157.265 24.21C157.265 23.6826 157.279 22.9502 157.309 22.0127L155.272 22.1006C154.228 22.1006 153.422 22.3545 152.855 22.8623C152.289 23.3701 152.006 24.0049 152.006 24.7666C152.006 25.5283 152.172 26.0752 152.504 26.4072C152.836 26.7393 153.505 26.9053 154.511 26.9053C155.526 26.9053 156.508 26.6221 157.455 26.0557Z" fill="#44785C"/>
<path d="M167.618 33.1455C167.726 33.5459 167.911 33.9023 168.175 34.2148C168.448 34.5371 168.78 34.6982 169.171 34.6982C169.806 34.6982 170.396 34.2783 170.943 33.4385C171.49 32.6084 171.959 31.4365 172.35 29.9229C172.154 29.3662 171.607 28.1113 170.709 26.1582C169.82 24.2051 168.771 22.125 167.56 19.918C166.202 17.457 165.206 16.1191 164.571 15.9043C164.425 15.8555 164.264 15.8262 164.088 15.8164C163.922 15.8066 163.775 15.7969 163.648 15.7871C163.512 15.7773 163.424 15.7725 163.385 15.7725C163.316 15.2939 163.282 15.0254 163.282 14.9668C163.282 14.8984 163.287 14.8252 163.297 14.7471C164.869 13.8682 166.334 13.4287 167.691 13.4287C168.268 13.4287 168.824 13.541 169.361 13.7656C169.898 13.9902 170.597 15.1328 171.456 17.1934C172.325 19.2441 173.307 22.2715 174.4 26.2754C175.68 21.959 176.676 18.458 177.389 15.7725C177.594 14.9912 177.955 14.4004 178.473 14C179 13.5996 179.513 13.3994 180.011 13.3994C181.456 13.3994 182.374 13.9609 182.765 15.084C182.647 15.084 182.413 15.2695 182.062 15.6406C181.72 16.002 181.344 16.5 180.934 17.1348C180.523 17.7598 180.069 18.6094 179.571 19.6836C179.083 20.7578 178.629 21.8613 178.209 22.9941C177.799 24.127 177.35 25.3379 176.861 26.627C176.373 27.9062 175.899 29.127 175.44 30.2891C174.991 31.4609 174.488 32.5889 173.932 33.6729C173.375 34.7568 172.818 35.6895 172.262 36.4707C171.705 37.2617 171.08 37.8916 170.387 38.3604C169.693 38.8389 169.02 39.0781 168.365 39.0781C167.721 39.0781 167.184 38.9854 166.754 38.7998C166.334 38.624 166.007 38.3848 165.772 38.082C165.323 37.4668 165.099 36.7979 165.099 36.0752C165.099 35.3623 165.338 34.7373 165.816 34.2002C166.305 33.6631 166.905 33.3115 167.618 33.1455Z" fill="#44785C"/>
<path d="M188.332 19.0537C188.332 19.1416 188.337 19.2246 188.347 19.3027C188.347 19.4004 188.127 19.5078 187.688 19.625C187.248 19.7324 186.789 19.7861 186.311 19.7861C185.832 19.7861 185.358 19.5371 184.89 19.0391C184.431 18.541 184.201 17.7891 184.201 16.7832C184.201 15.3184 184.88 14.332 186.237 13.8242C186.921 13.5605 187.697 13.4287 188.566 13.4287C189.445 13.4287 191.042 13.5068 193.356 13.6631C195.671 13.8096 197.678 13.9219 199.377 14C199.562 14.498 199.655 15.001 199.655 15.5088C199.655 16.0068 199.562 16.5439 199.377 17.1201L189.636 25.8506C191.384 26.2607 192.834 26.4658 193.986 26.4658C196.203 26.4658 197.873 25.8018 198.996 24.4736C199.504 24.7275 199.934 25.0986 200.285 25.5869C200.139 27.7354 199.421 29.1562 198.132 29.8496C197.585 30.1426 196.96 30.2891 196.257 30.2891C195.563 30.2891 194.709 30.2256 193.693 30.0986C192.688 29.9717 191.398 29.791 189.826 29.5566C188.254 29.3223 186.896 29.1367 185.754 29C185.559 28.6777 185.461 28.209 185.461 27.5938C185.461 26.5781 185.539 25.8945 185.695 25.543L195.598 16.8857C193.322 16.6416 191.95 16.5195 191.481 16.5195C189.382 16.5195 188.332 17.3643 188.332 19.0537Z" fill="#44785C"/>
<path d="M206.24 22.6719C206.533 24.1172 207.158 25.2842 208.115 26.1729C209.072 27.0615 210.19 27.5059 211.47 27.5059C212.749 27.5059 214.038 26.9541 215.337 25.8506C215.825 26.1729 216.123 26.5537 216.23 26.9932C215.332 28.0381 214.004 28.7852 212.246 29.2344C211.533 29.4199 210.708 29.5127 209.771 29.5127C208.843 29.5127 207.881 29.3418 206.885 29C205.889 28.668 204.995 28.1797 204.204 27.5352C203.423 26.8906 202.803 26.0459 202.344 25.001C201.885 23.9463 201.655 22.7793 201.655 21.5C201.655 20.2207 201.89 19.0635 202.358 18.0283C202.827 16.9834 203.447 16.1289 204.219 15.4648C205.83 14.0684 207.676 13.3701 209.756 13.3701C211.582 13.3701 213.164 13.8633 214.502 14.8496C215.146 15.3379 215.659 15.9727 216.04 16.7539C216.431 17.5254 216.626 18.3994 216.626 19.376C216.626 21.0459 216.074 21.9248 214.971 22.0127L206.24 22.6719ZM212.686 18.9365C212.686 17.7744 212.363 16.8662 211.719 16.2119C211.074 15.5576 210.229 15.2305 209.185 15.2305C208.14 15.2305 207.349 15.7236 206.812 16.71C206.274 17.6865 206.006 19.0439 206.006 20.7822C208.438 20.5186 210.635 20.2402 212.598 19.9473C212.656 19.5957 212.686 19.2588 212.686 18.9365Z" fill="#44785C"/>
</svg>
